<svg xmlns="http://www.w3.org/2000/svg" version="1.1" xmlns:xlink="http://www.w3.org/1999/xlink" width="512" height="512" x="0" y="0" viewBox="0 0 513 513" style="enable-background:new 0 0 512 512" xml:space="preserve" class=""><g transform="matrix(1.0499999999999998,0,0,1.0499999999999998,-12.819801044464043,-12.831048583984455)"><g fill="#000"><path d="M480.395 448.621h-12a4 4 0 0 1-4-4v-170.49a4.003 4.003 0 0 0-3.363-4.006 4.008 4.008 0 0 0-1.877.146 104.94 104.94 0 0 1-28.32 4.78c-1.18 0-2.3.05-3.4.05a108.21 108.21 0 0 1-52.85-13.64 8.235 8.235 0 0 0-8 0 108.174 108.174 0 0 1-52.84 13.64 106.108 106.108 0 0 1-52.46-13.79 8.213 8.213 0 0 0-8.09 0 108.136 108.136 0 0 1-53.16 13.8 106.19 106.19 0 0 1-52.77-14 8.258 8.258 0 0 0-8.16 0 106.195 106.195 0 0 1-52.77 14c-1.09 0-2.19 0-3.37-.05h-.06a104.905 104.905 0 0 1-29.28-5.09 3.998 3.998 0 0 0-5.23 3.8v170.85a4.003 4.003 0 0 1-4 4h-11.5c-8.64 0-16.1 6.64-16.48 15.28a16.004 16.004 0 0 0 9.692 15.431 15.99 15.99 0 0 0 6.288 1.289h447.5c8.64 0 16.1-6.64 16.48-15.28a16.01 16.01 0 0 0-4.417-11.775 16.011 16.011 0 0 0-11.563-4.945zm-256-68a4.004 4.004 0 0 1-4 4h-88a4 4 0 0 1-4-4v-64a11.999 11.999 0 0 1 12-12h72a12 12 0 0 1 12 12zm156 68h-72a4 4 0 0 1-4-4v-128a11.999 11.999 0 0 1 12-12h56a11.998 11.998 0 0 1 12 12v128a4.004 4.004 0 0 1-4 4zM492.965 170.901l-42.92-98.49c-11.24-24.17-36.91-39.79-65.4-39.79h-256.55c-28.49 0-54.16 15.62-65.4 39.79l-42.92 98.49c-9 19.41 2.89 39.34 2.9 39.35l.28.45c.49.78 1.36 2 1.89 2.78.05.06.09.13.14.2l5 6.05c.187.228.387.445.6.65l5 4.83.42.36a69.6 69.6 0 0 0 9.39 6.78v.05a73.99 73.99 0 0 0 36 10.67h2.47a76.08 76.08 0 0 0 51.89-20.31l.33-.31a7.94 7.94 0 0 1 10.89 0l.33.31a77.3 77.3 0 0 0 104.46 0 7.998 7.998 0 0 1 10.87 0 77.305 77.305 0 0 0 104.21.23 7.88 7.88 0 0 1 10.71 0 76.812 76.812 0 0 0 52.31 20.08h2.49a71.354 71.354 0 0 0 35-10.7c.95-.57 1.86-1.17 2.78-1.77a71.336 71.336 0 0 0 18.26-17.81l1.74-2.63c.173-.267.333-.547.48-.84 1.66-3.38 10.56-20.76 2.35-38.42z" fill="#0d9276" opacity="1" data-original="#000000" class=""></path></g></g></svg>